HIERARCHY
ROOT SpineBase
{
  OFFSET 0.000000 0.000000 0.000000
  CHANNELS 6 Xposition Yposition Zposition Zrotation Xrotation Yrotation
  JOINT SpineMid
  {
    OFFSET -0.000000 31.116178 0.000000
    CHANNELS 3 Zrotation Xrotation Yrotation
    JOINT SpineShoulder
    {
      OFFSET -0.010321 23.162544 -0.575879
      CHANNELS 3 Zrotation Xrotation Yrotation
      JOINT Neck
      {
        OFFSET 0.013473 7.684030 -0.474348
        CHANNELS 3 Zrotation Xrotation Yrotation
        JOINT Head
        {
          OFFSET -4.545483 13.325189 1.258892
          CHANNELS 3 Zrotation Xrotation Yrotation
          End Site
          {
            OFFSET 0 0 0
          }
        }
      }
      JOINT ShoulderLeft
      {
        OFFSET -16.305310 -4.413100 8.736519
        CHANNELS 3 Zrotation Xrotation Yrotation
        JOINT ElbowLeft
        {
          OFFSET -2.807031 -28.288249 1.539164
          CHANNELS 3 Zrotation Xrotation Yrotation
          JOINT WristLeft
          {
            OFFSET 0.477444 -21.055397 -4.700840
            CHANNELS 3 Zrotation Xrotation Yrotation
            JOINT HandLeft
            {
              OFFSET 0.556601 -7.915799 -0.056932
              CHANNELS 3 Zrotation Xrotation Yrotation
              JOINT HandTipLeft
              {
                OFFSET 0.123778 -7.586771 -1.082668
                CHANNELS 3 Zrotation Xrotation Yrotation
                End Site
                {
                  OFFSET 0 0 0
                }
              }
              JOINT ThumbLeft
              {
                OFFSET 3.020248 -0.847952 -3.714150
                CHANNELS 3 Zrotation Xrotation Yrotation
                End Site
                {
                  OFFSET 0 0 0
                }
              }
            }
          }
        }
      }
      JOINT ShoulderRight
      {
        OFFSET 13.522717 -2.272552 -7.295765
        CHANNELS 3 Zrotation Xrotation Yrotation
        JOINT ElbowRight
        {
          OFFSET 8.752324 -27.278270 -2.405258
          CHANNELS 3 Zrotation Xrotation Yrotation
          JOINT WristRight
          {
            OFFSET 1.353249 -20.175112 -6.872378
            CHANNELS 3 Zrotation Xrotation Yrotation
            JOINT HandRight
            {
              OFFSET -0.444629 -6.879318 -0.251927
              CHANNELS 3 Zrotation Xrotation Yrotation
              JOINT HandTipRight
              {
                OFFSET 0.061258 -8.049871 -0.565645
                CHANNELS 3 Zrotation Xrotation Yrotation
                End Site
                {
                  OFFSET 0 0 0
                }
              }
              JOINT ThumbRight
              {
                OFFSET -3.094096 1.221604 -0.471184
                CHANNELS 3 Zrotation Xrotation Yrotation
                End Site
                {
                  OFFSET 0 0 0
                }
              }
            }
          }
        }
      }
    }
  }
  JOINT HipLeft
  {
    OFFSET -5.991202 0.012819 -0.385493
    CHANNELS 3 Zrotation Xrotation Yrotation
    JOINT KneeLeft
    {
      OFFSET -1.296596 -37.634271 1.062913
      CHANNELS 3 Zrotation Xrotation Yrotation
      JOINT AnkleLeft
      {
        OFFSET 7.494979 -36.636786 9.154939
        CHANNELS 3 Zrotation Xrotation Yrotation
        JOINT FootLeft
        {
          OFFSET -3.808030 -4.339549 -11.016957
          CHANNELS 3 Zrotation Xrotation Yrotation
          End Site
          {
            OFFSET 0 0 0
          }
        }
      }
    }
  }
  JOINT HipRight
  {
    OFFSET 6.370196 1.768029 -5.912533
    CHANNELS 3 Zrotation Xrotation Yrotation
    JOINT KneeRight
    {
      OFFSET 7.544378 -33.330725 -2.582352
      CHANNELS 3 Zrotation Xrotation Yrotation
      JOINT AnkleRight
      {
        OFFSET 3.099901 -37.748455 11.223879
        CHANNELS 3 Zrotation Xrotation Yrotation
        JOINT FootRight
        {
          OFFSET -3.560252 -5.545175 -8.552402
          CHANNELS 3 Zrotation Xrotation Yrotation
          End Site
          {
            OFFSET 0 0 0
          }
        }
      }
    }
  }
}
MOTION
Frames: 6
Frame Time: 0.033333
-21.782659 85.408349 331.904908 5.743432 3.989996 20.013443 0.264822 -0.147047 -20.048449 0.093792 -0.058470 0.227030 -3.396925 -9.573208 -2.460924 0.000000 0.000000 0.000000 -137.926659 52.251691 70.667093 -102.326114 55.015950 -63.547910 -10.693617 -19.876690 77.249626 2.162833 5.664607 -29.633826 0.000000 0.000000 0.000000 0.000000 0.000000 0.000000 2.167906 0.631633 0.360829 -7.415108 -4.884232 -1.308271 -6.641426 7.933348 0.494621 -0.747165 -4.739966 0.436589 0.000000 0.000000 0.000000 0.000000 0.000000 0.000000 -4.390256 -4.049649 -20.066737 -0.632474 -0.370178 0.131345 -0.516687 7.760139 -9.239169 0.000000 0.000000 0.000000 -10.487291 -1.920971 -20.498563 5.909621 2.116497 0.731713 10.180797 -35.153088 13.616527 0.000000 0.000000 0.000000
-22.321490 86.057541 332.019074 6.436224 4.161174 19.828678 0.233736 -0.173462 -19.878657 0.112452 -0.058042 0.253916 -2.561494 -7.967056 -1.949441 0.000000 0.000000 0.000000 -141.144680 49.836389 69.527548 -96.812678 52.233385 -68.092451 -3.895422 -7.506486 71.910222 -15.326362 9.312599 -20.751928 0.000000 0.000000 0.000000 0.000000 0.000000 0.000000 2.665280 0.964291 0.348492 -7.968151 -5.411728 -1.595511 -8.262084 8.290507 0.830162 0.393844 -3.954540 0.544768 0.000000 0.000000 0.000000 0.000000 0.000000 0.000000 -4.541693 -3.966985 -19.891251 -0.796186 -0.479434 0.232442 -1.846604 10.524039 -8.697714 0.000000 0.000000 0.000000 -11.036326 -1.955246 -20.367945 6.128907 2.292304 0.864083 9.249718 -33.674887 11.181906 0.000000 0.000000 0.000000
-22.877517 86.579005 332.159525 7.027105 4.343653 20.096125 0.175448 -0.173391 -20.165546 0.106128 -0.058693 0.273298 -1.739438 -6.495698 -1.498962 0.000000 0.000000 0.000000 -142.540951 46.741797 65.251299 -94.635582 45.927097 -63.471874 7.173814 7.045294 63.209445 -42.341763 13.044322 -5.199247 0.000000 0.000000 0.000000 0.000000 0.000000 0.000000 3.092488 1.151383 0.337633 -8.454900 -5.701198 -1.799626 -9.232822 8.276215 1.034667 1.469441 -5.018079 0.526919 0.000000 0.000000 0.000000 0.000000 0.000000 0.000000 -4.690803 -3.913942 -20.168638 -0.824627 -0.580152 0.348434 -1.376507 8.253456 -9.561648 0.000000 0.000000 0.000000 -11.460099 -2.028380 -20.703990 6.210840 2.526058 0.993810 11.261162 -36.395051 10.383981 0.000000 0.000000 0.000000
-23.391754 86.942377 332.300543 7.415144 4.512393 20.702174 0.085232 -0.158279 -20.791752 0.077681 -0.066095 0.281990 -1.066746 -5.406090 -1.168154 0.000000 0.000000 0.000000 -141.652352 43.635612 58.619857 -95.313752 39.001104 -55.097816 6.530888 17.719132 27.171329 -55.124940 -15.150019 11.707976 0.000000 0.000000 0.000000 0.000000 0.000000 0.000000 3.520496 1.327625 0.357850 -8.925705 -5.864333 -1.940514 -9.408706 8.220397 1.075293 2.111670 -5.189316 0.555947 0.000000 0.000000 0.000000 0.000000 0.000000 0.000000 -4.764848 -3.996145 -20.773110 -0.881924 -0.428937 0.458751 -1.827505 8.036426 -9.377247 0.000000 0.000000 0.000000 -11.672856 -2.116986 -21.374774 6.180024 2.712861 1.105299 10.124405 -33.644498 6.515691 0.000000 0.000000 0.000000
-23.789451 87.104796 332.424598 7.596468 4.676439 21.462023 0.038219 -0.136521 -21.568406 0.098760 -0.064310 0.288712 -0.678465 -4.821318 -0.968528 0.000000 0.000000 0.000000 -140.405204 41.062653 52.626770 -95.766905 31.542837 -45.850590 -2.377068 34.143972 -25.206668 -39.069328 -68.876423 40.113702 0.000000 0.000000 0.000000 0.000000 0.000000 0.000000 3.779939 1.400171 0.392609 -9.358536 -5.861247 -1.999737 -8.854502 8.033015 0.963742 1.492669 -5.480054 0.522003 0.000000 0.000000 0.000000 0.000000 0.000000 0.000000 -4.747483 -4.110800 -21.528237 -0.902452 -0.338089 0.544095 -2.263267 7.875255 -9.071759 0.000000 0.000000 0.000000 -11.715435 -2.231524 -22.191470 6.063188 2.858230 1.185297 7.416903 -26.809390 1.474641 0.000000 0.000000 0.000000
-24.050336 87.074700 332.503959 7.692735 4.841475 22.470498 0.150675 -0.134303 -22.585198 0.112132 -0.054803 0.296747 -1.059684 -4.678046 -0.876947 0.000000 0.000000 0.000000 -136.886865 37.465722 42.984912 -99.004699 23.662015 -35.751318 -3.565701 45.192869 -48.347739 -12.678138 -79.573089 54.290690 0.000000 0.000000 0.000000 0.000000 0.000000 0.000000 3.789239 1.404459 0.435200 -9.630718 -5.901234 -2.057355 -8.337104 7.909620 0.865812 1.518046 -6.006325 0.508444 0.000000 0.000000 0.000000 0.000000 0.000000 0.000000 -4.829911 -4.368276 -22.526922 -0.855166 -0.045438 0.617255 -2.813603 7.615313 -8.390322 0.000000 0.000000 0.000000 -11.814409 -2.352197 -23.263390 6.016707 2.953749 1.251540 2.881050 -11.981485 -4.689744 0.000000 0.000000 0.000000
